<?xml version="1.0" encoding="utf-8"?>
<!-- Generator: Adobe Illustrator 21.1.0, SVG Export Plug-In . SVG Version: 6.00 Build 0)  -->
<svg version="1.1" id="Layer_1" xmlns="http://www.w3.org/2000/svg" xmlns:xlink="http://www.w3.org/1999/xlink" x="0px" y="0px"
	 viewBox="0 0 61 144" style="enable-background:new 0 0 61 144;" xml:space="preserve">
<style type="text/css">
	.st0{stroke:#000000;stroke-width:0.75;stroke-miterlimit:10;}
	.st1{fill-rule:evenodd;clip-rule:evenodd;}
</style>
<g>
	<rect x="48.5" y="115.3" class="st0" width="2.2" height="11.9"/>
	<path class="st0" d="M50.7,93.7h-2.2v-3.2c0-1.8-1.5-3.3-3.3-3.3H8.4V85h36.8c3,0,5.4,2.4,5.4,5.4L50.7,93.7z"/>
	<path class="st0" d="M20.9,131.1l26.6,3.8c3.6,0,5.3-2.7,5.3-5.4v-1.2H22.4C22.2,129.4,21.7,130.3,20.9,131.1L20.9,131.1z
		 M47.4,137l-30.8-4.4c-2.8-0.2-4.9-2.6-4.9-5.4V94.8h2.2v32.5c0,1.6,1.1,2.9,2.6,3.2l0.4,0.1c1.8,0.1,3.5-1.4,3.5-3.2l1.1-1.1h32.5
		l1.1,1.1v2.2C55,133.2,52.4,137,47.4,137L47.4,137z"/>
	<path class="st0" d="M5.2,93.7h6.5v-3.2c0-1.8-1.5-3.2-3.2-3.2s-3.2,1.5-3.2,3.2V93.7z M12.7,95.8H4.1L3,94.8v-4.3
		c0-3,2.4-5.4,5.4-5.4s5.4,2.4,5.4,5.4v4.3L12.7,95.8z"/>
</g>
<path d="M53.6,102.8l-9-6c-0.9-0.5-2-0.3-2.6,0.6c-0.6,0.9-0.4,2,0.5,2.6l6.7,4.5l-6.9,5.2c-0.8,0.6-1,1.8-0.4,2.7
	c0.6,0.8,1.8,1,2.7,0.4l9-6.9v0c0.5-0.4,0.8-1,0.8-1.6C54.4,103.8,54.1,103.2,53.6,102.8L53.6,102.8z M30.5,109.7l-6.7-4.5l6.9-5.2
	v0c0.8-0.6,1-1.8,0.4-2.7c-0.6-0.8-1.8-1-2.7-0.4l-9,6.9v0c-0.5,0.4-0.8,1-0.8,1.6c0,0.6,0.4,1.2,0.9,1.5l9,6c0.4,0.4,1,0.5,1.5,0.5
	c0.6-0.1,1-0.4,1.3-0.9c0.3-0.5,0.4-1,0.2-1.6C31.4,110.4,31,109.9,30.5,109.7L30.5,109.7z M39.7,97.8L35,112.6v0
	c-0.1,0.4-0.4,0.6-0.8,0.6h-0.3c-0.2-0.1-0.4-0.2-0.5-0.5c-0.1-0.2-0.1-0.5,0-0.7L38,97.3c0-0.3,0.2-0.5,0.4-0.7
	c0.2-0.2,0.5-0.2,0.8-0.1c0.3,0.1,0.5,0.3,0.6,0.5C39.9,97.3,39.8,97.6,39.7,97.8L39.7,97.8z"/>
<path d="M30.5,118.4c0.2,0,0.3,0,0.5,0.1c2.5,1,5.4,1,7.9,0c0.7-0.4,1.4-0.1,1.8,0.5c0.4,0.6,0.1,1.4-0.5,1.8
	c-0.1,0-0.2,0.1-0.3,0.1c-3.2,1.2-6.7,1.2-9.8,0c-0.7-0.3-1-1-0.7-1.7C29.4,118.7,29.9,118.4,30.5,118.4L30.5,118.4z"/>
<path class="st1" d="M26.9,63.8c-0.4,0-0.8,0.2-1.1,0.5c-0.3,0.3-0.5,0.7-0.5,1.1c0,0.4,0.2,0.8,0.5,1.1c0.3,0.3,0.7,0.5,1.1,0.4
	h4.6c0.4,0,0.8-0.2,1.1-0.4c0.3-0.3,0.5-0.7,0.5-1.1c0-0.4-0.2-0.8-0.5-1.1c-0.3-0.3-0.7-0.5-1.1-0.5H26.9z"/>
<path class="st1" d="M26.9,68.4c-0.4,0-0.8,0.2-1.1,0.5c-0.3,0.3-0.5,0.7-0.5,1.1c0,0.4,0.2,0.8,0.5,1.1c0.3,0.3,0.7,0.5,1.1,0.4
	h4.6c0.4,0,0.8-0.2,1.1-0.4c0.3-0.3,0.5-0.7,0.5-1.1c0-0.4-0.2-0.8-0.5-1.1c-0.3-0.3-0.7-0.5-1.1-0.5H26.9z"/>
<path class="st1" d="M29.2-1.1c-0.9,0-1.6,0.7-1.5,1.6v60.1c0,0.6,0.4,1.2,1,1.4c0.6,0.2,1.3,0.1,1.7-0.3l3.9-3.9
	c0.3-0.3,0.5-0.7,0.5-1.1c0-0.4-0.2-0.8-0.5-1.1c-0.3-0.3-0.7-0.5-1.1-0.5c-0.4,0-0.8,0.2-1.1,0.5l-1.2,1.2V0.5
	c0-0.4-0.2-0.8-0.5-1.1C30-0.9,29.6-1.1,29.2-1.1L29.2-1.1z"/>
<path d="M30,68.8c-0.6,0-1.1,0.3-1.3,0.8c-0.3,0.5-0.3,1.1,0,1.5l4.1,7.4c0.7,1.2,1.3,2.4,1.6,3.5c0.3,1.1,0.3,1.9-0.1,2.9
	c-0.8,2.1-2.8,3.4-5.1,3.4c-2.2,0-4.2-1.4-5.1-3.5c-0.8-2.1-0.3-4.4,1.3-6h0c0.6-0.6,0.7-1.6,0.1-2.2c-0.6-0.6-1.6-0.7-2.2-0.1
	c-2.6,2.4-3.4,6.1-2.1,9.4c1.3,3.3,4.4,5.4,8,5.4v0h0c3.5,0,6.7-2.1,8-5.4c0.7-1.7,0.6-3.4,0.1-4.9c-0.4-1.5-1.2-2.9-1.9-4.1
	l-4.1-7.4h0C31.1,69.1,30.6,68.8,30,68.8L30,68.8z"/>
</svg>
